<?xml version="1.0" encoding="utf-8"?>
<!-- Generator: Adobe Illustrator 26.1.0, SVG Export Plug-In . SVG Version: 6.00 Build 0)  -->
<svg version="1.1" id="Layer_1" xmlns="http://www.w3.org/2000/svg" xmlns:xlink="http://www.w3.org/1999/xlink" x="0px" y="0px"
	 viewBox="0 0 408.5 29.9" style="enable-background:new 0 0 408.5 29.9;" xml:space="preserve">
<style type="text/css">
	.st0{fill:#555555;}
</style>
<path class="st0" d="M0,26.4c1.5-2.4,2.7-5.1,3.5-7.8l2.6,1c-0.9,2.8-2,5.5-3.4,8.1L0,26.4z M13.2,14.5H2.9V4h10.3V0.2h3V4h10.5
	v10.5H16.2v2.9H15c1.5,1.2,2.9,2.5,4.2,3.9l-2.4,1.9c-1.5-1.7-3.1-3.2-4.8-4.6l1.6-1.1h-0.3L13.2,14.5z M13.2,11.8V6.6H5.8v5.2
	C5.8,11.8,13.2,11.8,13.2,11.8z M18.5,26.3c1.5,0,1.8-0.5,1.9-4c0.9,0.5,1.8,0.9,2.8,1.2c-0.4,4.5-1.3,5.6-4.5,5.6h-6.1
	c-3.8,0-4.8-0.9-4.8-3.9v-6.6H11v6.6c0,1,0.3,1.2,2,1.2h5.5V26.3z M16.2,6.6v5.2h7.5V6.6H16.2z M24.5,18.3c1.8,2.3,3.4,4.8,4.9,7.3
	l-2.8,1.5c-1.4-2.6-2.9-5.1-4.7-7.5L24.5,18.3z"/>
<path class="st0" d="M59.9,12.2c0,0,0,0.9,0,1.2c-0.3,9.9-0.6,13.4-1.5,14.6c-0.5,0.7-1.2,1.1-2,1.2c-1,0.1-2,0.1-3.1,0.1
	c-0.1-0.9-0.3-1.9-0.7-2.7c1,0.1,1.9,0.1,2.3,0.1c0.4,0,0.7-0.1,0.9-0.5c0.5-0.7,0.8-3.5,1.1-11.3h-3.6C53,21.1,52,26.2,49.2,29.7
	c-0.6-0.9-1.4-1.6-2.2-2.2c3.3-4.1,3.5-10.9,3.6-19.4h-2.9V5.3h6.1c-0.6-1.5-1.4-2.9-2.4-4.2L54.1,0c1.1,1.4,1.9,2.8,2.6,4.4
	l-2.2,0.9h6.3v2.8h-7.3c0,1.4-0.1,2.8-0.1,4.1C53.4,12.2,59.9,12.2,59.9,12.2z M70.4,0.9c-0.2,0.6-0.4,1.3-0.6,2
	c1.7,3.4,4.3,6.3,7.6,8.4c-0.8,0.7-1.6,1.5-2.2,2.4c-2.8-2.1-5.1-4.8-6.7-7.8c-1.6,3.2-3.9,6-6.8,8.1c-0.6-0.9-1.3-1.7-2.1-2.4
	c4-2.7,6.8-6.7,8-11.4L70.4,0.9z M64.8,21.2c3.1,1.5,6.1,3.4,8.9,5.5l-2,2.6C69,27,66,25.1,62.8,23.5L64.8,21.2z M70.4,19
	c-1.7-1.7-3.5-3.2-5.5-4.6l2-1.9c2,1.3,3.9,2.7,5.6,4.2L70.4,19z"/>
<path class="st0" d="M106.9,25.8c-3,1.8-6.3,3.1-9.6,4c-0.6-0.7-1.3-1.4-2.1-2.1c3.2-0.8,6.3-2,9.2-3.6L106.9,25.8z M123.7,23.8
	H95.3v-2.5h4.4V7h7.7c0.1-0.6,0.2-1.1,0.3-1.7H96.2V2.7h11.9c0.1-0.9,0.2-1.8,0.3-2.5l3.2,0.3c-0.1,0.7-0.3,1.5-0.4,2.2H123v2.5
	h-12.2c-0.1,0.6-0.3,1.2-0.3,1.7h9v14.3h4.3L123.7,23.8z M102.6,9v1.8h13.7V9H102.6z M116.3,12.6h-13.7v1.6h13.7V12.6z M102.6,16
	v1.6h13.7V16H102.6z M102.6,21.4h13.7v-2h-13.7V21.4z M114,23.9c3.4,1,6.7,2.3,9.9,3.8l-2.4,2c-3-1.5-6.1-2.8-9.3-3.8L114,23.9z"/>
<path class="st0" d="M171.3,9.2v2.2h-5.5l-0.3,2.7h-18.4l0.4-2.7h-5.1V9.2h5.4l0.3-2.6h18.2L166,9.2H171.3z M161.5,25.4
	c3.3,0.8,6.6,1.9,8.8,2.6l-2,1.9c-2.3-0.9-6.1-2.1-9.7-3.1l1.3-1.4h-6.5l1.9,1.3c-3.4,1.6-6.9,2.7-10.6,3.2c-0.5-0.7-1-1.4-1.6-2.1
	c3.2-0.4,6.3-1.2,9.2-2.4h-5.5V15.2h20.6v10.2H161.5z M146.1,8.2h-2.7V2.9h12.1c-0.4-0.8-0.7-1.5-1.2-2.2l2.6-0.7
	c0.7,0.9,1.3,1.9,1.7,2.9h11.8v5.3h-2.8V5.3h-21.4L146.1,8.2z M149.5,18.1h14.6v-1.2h-14.6V18.1z M149.5,20.9h14.6v-1.2h-14.6V20.9z
	 M149.5,23.8h14.6v-1.3h-14.6V23.8z M150,12.5h5.2c0.1-0.4,0.1-0.9,0.2-1.4h-5.2L150,12.5z M150.6,8.2l-0.2,1.2h5.2l0.1-1.2H150.6z
	 M163,12.5l0.1-1.4h-5.2c-0.1,0.5-0.1,0.9-0.2,1.4H163z M163.4,8.2h-5.1l-0.1,1.2h5.2L163.4,8.2z"/>
<path class="st0" d="M204.1,12.7c1.3,0,2.3,1,2.3,2.3s-1,2.3-2.3,2.3s-2.3-1-2.3-2.3l0,0C201.8,13.7,202.9,12.7,204.1,12.7
	L204.1,12.7z"/>
<path class="st0" d="M248.1,12.5c-0.4,0.6-0.7,1.3-1.1,1.9h15.5v15.5h-3v-1.2h-12.9v1.2h-2.9V18.6c-1.6,1.7-3.4,3.2-5.4,4.3
	c-0.5-0.9-1.1-1.6-1.8-2.4c3.4-1.9,6.2-4.7,8.1-8.1h-7.2V10h8.5c0.3-0.6,0.6-1.3,0.9-1.9h-7.1V5.8h8c0.2-0.6,0.4-1.2,0.6-1.8
	c-2.8,0.1-5.7,0.2-8.4,0.2c-0.1-0.8-0.3-1.6-0.6-2.3c7.8,0,17.3-0.5,22.5-1.5l1.8,2.2c-4,0.6-8.1,1.1-12.1,1.3
	c-0.2,0.7-0.4,1.3-0.6,2h13v2.4H250c-0.3,0.6-0.6,1.3-0.8,1.9h16.4v2.4L248.1,12.5L248.1,12.5z M259.5,16.7h-12.9v1.8h12.9V16.7z
	 M246.6,22.4h12.9v-1.8h-12.9V22.4z M259.5,26.4v-2h-12.9v2H259.5z"/>
<path class="st0" d="M309.4,26.7c1.3,0,1.5-0.5,1.6-4.4c0.9,0.6,1.8,1,2.8,1.2c-0.4,4.8-1.2,6-4.1,6h-4.8c-3.4,0-4.2-0.9-4.2-3.9
	v-5.8H296c-0.7,5.1-2.7,8.4-10.3,10.1c-0.4-1-1-1.9-1.7-2.6c6.6-1.3,8.2-3.6,8.8-7.5h-4.2V1.3h20.5v18.5h-5.5v5.8
	c0,1,0.2,1.1,1.5,1.1L309.4,26.7z M291.6,6.7h14.6V4h-14.6V6.7z M291.6,11.9h14.6V9.1h-14.6V11.9z M291.6,17.1h14.6v-2.8h-14.6V17.1
	z"/>
<path class="st0" d="M349.3,16.1c3.1,4.1,7.2,7.4,11.9,9.5c-0.8,0.8-1.5,1.6-2.2,2.6c-4.4-2.4-8.2-5.7-11.2-9.7v11.2h-3.2v-11
	c-3,3.9-6.8,7.2-11.2,9.5c-0.7-0.9-1.4-1.8-2.2-2.5c4.7-2.2,8.7-5.4,11.8-9.5h-10.9v-3h12.5v-5h-10.1v-3h10.1v-5h3.2v5.1h10.4v3
	h-10.4v4.9h12.7v3L349.3,16.1z"/>
<path class="st0" d="M405.6,18.8c-1.5-1.5-3-2.9-4.6-4.2c-0.7,1.2-1.5,2.3-2.5,3.3c-0.8-0.6-1.6-1.1-2.4-1.5
	c3.2,4.2,7.5,7.5,12.5,9.4c-0.9,0.8-1.6,1.7-2.3,2.7c-4.4-2.1-8.2-5.2-11.2-9v10.3h-3.2V19.6c-3,3.7-6.8,6.8-11.1,8.8
	c-0.6-0.9-1.3-1.8-2.1-2.5c5.4-2.3,10-6.1,13.2-10.9V7.4h-12V4.5h12V0.2h3.1v4.3h12.4v2.9H395v7.5c0.3,0.5,0.6,0.9,0.9,1.4
	c2.3-2.2,3.9-5.2,4.4-8.4l2.9,0.5c-0.3,1.2-0.6,2.4-1.1,3.6c1.9,1.4,3.8,3,5.6,4.6L405.6,18.8z M388.2,8.5c-0.3,1.2-0.7,2.5-1.2,3.6
	c1.2,1,2.3,2.1,3.4,3.2l-2,2.1c-0.8-1-1.7-1.9-2.6-2.7c-1,1.8-2.3,3.4-3.9,4.8c-0.7-0.7-1.5-1.4-2.3-2c3-2.4,5-5.8,5.8-9.6
	L388.2,8.5z"/>
</svg>
