<?xml version="1.0" encoding="utf-8"?>
<!-- Generator: Adobe Illustrator 26.1.0, SVG Export Plug-In . SVG Version: 6.00 Build 0)  -->
<svg version="1.1" id="Layer_1" xmlns="http://www.w3.org/2000/svg" xmlns:xlink="http://www.w3.org/1999/xlink" x="0px" y="0px"
	 viewBox="0 0 317.4 26.8" style="enable-background:new 0 0 317.4 26.8;" xml:space="preserve">
<style type="text/css">
	.st0{fill:#555555;}
</style>
<path class="st0" d="M136.1,9.3c1,0,1.8,0.8,1.8,1.8s-0.8,1.8-1.8,1.8s-1.8-0.8-1.8-1.8S135.1,9.3,136.1,9.3L136.1,9.3z"/>
<path class="st0" d="M0,18.4l2.2-2.7c1.3,1.3,3.1,2,4.9,2.1c2,0,3.1-0.9,3.1-2.2S9,13.7,7.3,13l-2.6-1c-2-0.9-3.9-2.4-3.9-5.2
	c0-3.2,2.8-5.6,6.7-5.6c2.3,0,4.5,0.9,6.1,2.5l-2,2.4C10.5,5,9,4.5,7.5,4.5c-1.7,0-2.8,0.8-2.8,2s1.4,1.9,3,2.5l2.5,1.1
	c2.4,1,3.9,2.5,3.9,5.3c0,3.2-2.6,5.9-7.1,5.9C4.4,21.2,1.9,20.2,0,18.4z"/>
<path class="st0" d="M17.2,15.8V9.3h-2.1V6.4l2.2-0.2l0.4-3.9H21v3.9h3.6v3H21v6.5c0,1.7,0.7,2.5,2,2.5c0.5,0,1-0.1,1.4-0.3l0.6,2.8
	c-1,0.4-2,0.5-3.1,0.5C18.5,21.2,17.2,19.1,17.2,15.8z"/>
<path class="st0" d="M26.4,16.9c0-3.1,2.5-4.8,8.4-5.4c0-1.4-0.6-2.5-2.5-2.5c-1.4,0.1-2.8,0.6-4,1.4l-1.4-2.6
	c1.8-1.2,3.9-1.9,6.1-1.9c3.7,0,5.6,2.2,5.6,6.5V21h-3.1l-0.3-1.6h-0.1c-1.2,1.2-2.8,1.8-4.4,1.9c-2.3,0.1-4.2-1.7-4.3-4
	C26.4,17.2,26.4,17,26.4,16.9z M34.8,16.8v-3c-3.6,0.5-4.8,1.4-4.8,2.8c0,1.1,0.8,1.6,1.9,1.6C33.1,18.2,34.1,17.6,34.8,16.8
	L34.8,16.8z"/>
<path class="st0" d="M42,26.5l0.7-3c0.3,0.1,0.7,0.2,1,0.2c1.3,0,2.5-0.9,2.8-2.2l0.3-0.9L41,6.2h3.9l2.4,6.8
	c0.5,1.3,0.8,2.7,1.2,4.1h0.1c0.3-1.4,0.7-2.8,1-4.1l2-6.8h3.7l-5.2,15.1c-1.3,3.5-2.8,5.5-6.1,5.5C43.3,26.8,42.6,26.7,42,26.5z"/>
<path class="st0" d="M68.1,4.7h-5.5V1.5h14.8v3.2H72v16.1h-3.9V4.7z"/>
<path class="st0" d="M79.2,6.2h3.1l0.3,2.6h0.1c1.1-1.9,2.6-3,4.2-3c0.6,0,1.2,0.1,1.7,0.3l-0.7,3.4c-0.5-0.2-1-0.2-1.5-0.2
	c-1.2,0-2.5,0.8-3.4,2.9v8.7h-3.8C79.2,20.9,79.2,6.2,79.2,6.2z"/>
<path class="st0" d="M90.6,15.4V6.2h3.8v8.7c0,2.3,0.6,3.1,2,3.1c1.2,0,2-0.5,3-1.8v-10h3.8v14.7h-3.1l-0.3-2.1h-0.1
	c-1.1,1.5-2.8,2.4-4.7,2.5C91.9,21.2,90.6,19.1,90.6,15.4z"/>
<path class="st0" d="M106.6,13.6c0-4.8,3.3-7.7,6.8-7.7c4,0,6.1,3,6.1,7c0,0.6,0,1.2-0.2,1.8h-9c0.1,2.1,1.9,3.8,4,3.7l0,0
	c1.2,0,2.3-0.4,3.3-1l1.3,2.3c-1.5,1-3.3,1.6-5.1,1.6C109.8,21.2,106.6,18.4,106.6,13.6z M116.2,12.1c0-2-0.9-3.2-2.8-3.2
	c-1.6,0-2.9,1.1-3.2,3.2H116.2z"/>
<path class="st0" d="M153.5,1.5h3.9v16.1h7.9v3.2h-11.7L153.5,1.5L153.5,1.5z"/>
<path class="st0" d="M167.1,13.6c0-4.9,3.4-7.7,7-7.7s7,2.8,7,7.7s-3.4,7.7-7,7.7S167.1,18.4,167.1,13.6z M177.3,13.6
	c0-2.8-1.1-4.6-3.1-4.6s-3.2,1.8-3.2,4.6s1.1,4.5,3.1,4.5S177.3,16.3,177.3,13.6z"/>
<path class="st0" d="M183.6,13.6c0-4.9,3.4-7.7,7-7.7s7,2.8,7,7.7s-3.4,7.7-7,7.7S183.6,18.4,183.6,13.6z M193.8,13.6
	c0-2.8-1.1-4.6-3.1-4.6s-3.1,1.8-3.1,4.6s1.1,4.5,3.1,4.5S193.8,16.3,193.8,13.6L193.8,13.6z"/>
<path class="st0" d="M201.1,0h3.7v12.6h0.1l5.1-6.3h4.2l-5.1,6l5.6,8.7h-4.2l-3.6-6.1l-2.1,2.4V21h-3.7V0z"/>
<path class="st0" d="M223.4,1.5h6.4c4,0,7,1.2,7,4.8c0.1,1.8-1,3.5-2.6,4.2v0.1c2.2,0.4,3.8,2.4,3.6,4.6c0,3.9-3.2,5.7-7.5,5.7h-6.9
	V1.5z M229.5,9.4c2.5,0,3.5-1,3.5-2.5c0-1.7-1.1-2.4-3.5-2.4h-2.3v4.9H229.5z M230,17.9c2.6,0,4.1-0.9,4.1-3s-1.4-2.7-4.1-2.7h-2.7
	v5.7H230z"/>
<path class="st0" d="M240.1,13.6c0-4.8,3.3-7.7,6.8-7.7c4,0,6.1,3,6.1,7c0,0.6,0,1.2-0.2,1.8h-9c0.1,2.1,1.9,3.8,4,3.7l0,0
	c1.2,0,2.3-0.4,3.3-1l1.3,2.4c-1.5,1-3.3,1.6-5.1,1.6C243.3,21.2,240.1,18.4,240.1,13.6z M249.8,12.1c0-2-0.9-3.2-2.8-3.2
	c-1.5,0-2.9,1.1-3.2,3.2H249.8z"/>
<path class="st0" d="M255.5,26.5l0.7-3c0.3,0.1,0.7,0.2,1,0.2c1.3,0,2.5-0.9,2.8-2.2l0.3-0.9l-5.7-14.4h3.9l2.3,6.8
	c0.4,1.3,0.8,2.7,1.2,4.1h0.1c0.3-1.4,0.7-2.8,1-4.1l2-6.8h3.7l-5.2,15.1c-1.3,3.5-2.9,5.5-6.1,5.5
	C256.8,26.8,256.2,26.7,255.5,26.5z"/>
<path class="st0" d="M270.3,13.6c0-4.9,3.4-7.7,7-7.7s7,2.8,7,7.7s-3.4,7.7-7,7.7S270.3,18.4,270.3,13.6z M280.4,13.6
	c0-2.8-1.1-4.6-3.1-4.6s-3.1,1.8-3.1,4.6s1.1,4.5,3.1,4.5S280.5,16.3,280.4,13.6L280.4,13.6z"/>
<path class="st0" d="M287.7,6.2h3.1l0.3,1.9h0.1c1.2-1.4,2.9-2.2,4.8-2.3c3.2,0,4.5,2.2,4.5,5.9v9.1h-3.9v-8.7
	c0-2.2-0.6-3.1-2.1-3.1c-1.2,0-2,0.6-3.1,1.6v10.1h-3.8L287.7,6.2z"/>
<path class="st0" d="M303.8,13.6c0-4.8,3-7.7,6.1-7.7c1.4,0,2.8,0.6,3.7,1.6l-0.2-2.3V0h3.9v20.9h-3.1l-0.3-1.5h-0.1
	c-1.1,1.1-2.5,1.8-4.1,1.9C306.1,21.2,303.8,18.4,303.8,13.6z M313.5,16.6v-6.5c-0.7-0.7-1.7-1.1-2.7-1.1c-1.6,0-3,1.6-3,4.5
	s1.1,4.5,3,4.5C311.9,18,312.9,17.5,313.5,16.6L313.5,16.6z"/>
</svg>
